<svg width="75" height="73" viewBox="0 0 75 73" fill="none" xmlns="http://www.w3.org/2000/svg">
<mask id="mask0_2130_15347" style="mask-type:alpha" maskUnits="userSpaceOnUse" x="0" y="-1" width="75" height="74">
<rect y="-0.00012207" width="74.0973" height="73" fill="#D9D9D9"/>
</mask>
<g mask="url(#mask0_2130_15347)">
<path d="M32.2891 25.6282C32.2891 23.27 33.2382 21.0084 34.9276 19.3409C36.617 17.6734 38.9083 16.7366 41.2975 16.7366H59.3144C59.9117 16.7366 60.4845 16.9708 60.9069 17.3876C61.3292 17.8045 61.5665 18.3699 61.5665 18.9595V54.5261C61.5665 55.1156 61.3292 55.681 60.9069 56.0979C60.4845 56.5148 59.9117 56.749 59.3144 56.749H41.2975C38.9083 56.749 36.617 57.6858 34.9276 59.3533C33.2382 61.0208 32.2891 63.2824 32.2891 65.6406" fill="url(#paint0_linear_2130_15347)"/>
<path d="M32.2891 25.6282C32.2891 23.27 33.2382 21.0084 34.9276 19.3409C36.617 17.6734 38.9083 16.7366 41.2975 16.7366H59.3144C59.9117 16.7366 60.4845 16.9708 60.9069 17.3876C61.3292 17.8045 61.5665 18.3699 61.5665 18.9595V54.5261C61.5665 55.1156 61.3292 55.681 60.9069 56.0979C60.4845 56.5148 59.9117 56.749 59.3144 56.749H41.2975C38.9083 56.749 36.617 57.6858 34.9276 59.3533C33.2382 61.0208 32.2891 63.2824 32.2891 65.6406" stroke="url(#paint1_linear_2130_15347)" stroke-width="0.271226" stroke-linecap="round" stroke-linejoin="round"/>
<path d="M3.01172 54.5261C3.01172 55.1156 3.24899 55.681 3.67135 56.0979C4.0937 56.5148 4.66653 56.749 5.26383 56.749H23.2807C25.6699 56.749 27.9612 57.6858 29.6507 59.3533C31.3401 61.0208 32.2892 63.2824 32.2892 65.6406V25.6282C32.2892 23.27 31.3401 21.0084 29.6507 19.3409C27.9612 17.6734 25.6699 16.7366 23.2807 16.7366H5.26383C4.66653 16.7366 4.0937 16.9708 3.67135 17.3876C3.24899 17.8045 3.01172 18.3699 3.01172 18.9595V54.5261Z" fill="url(#paint2_linear_2130_15347)" stroke="url(#paint3_linear_2130_15347)" stroke-width="0.271226" stroke-linecap="round" stroke-linejoin="round"/>
<path d="M41.9238 16.2508C41.9238 13.8926 42.8729 11.6309 44.5623 9.96343C46.2518 8.29593 48.5431 7.35913 50.9323 7.35913H68.9492C69.5465 7.35913 70.1193 7.59333 70.5417 8.01021C70.964 8.42708 71.2013 8.99249 71.2013 9.58204V45.1486C71.2013 45.7382 70.964 46.3036 70.5417 46.7205C70.1193 47.1374 69.5465 47.3715 68.9492 47.3715H50.9323C48.5431 47.3715 46.2518 48.3083 44.5623 49.9759C42.8729 51.6434 41.9238 53.905 41.9238 56.2632" fill="url(#paint4_linear_2130_15347)"/>
<path d="M41.9238 16.2508C41.9238 13.8926 42.8729 11.6309 44.5623 9.96343C46.2518 8.29593 48.5431 7.35913 50.9323 7.35913H68.9492C69.5465 7.35913 70.1193 7.59333 70.5417 8.01021C70.964 8.42708 71.2013 8.99249 71.2013 9.58204V45.1486C71.2013 45.7382 70.964 46.3036 70.5417 46.7205C70.1193 47.1374 69.5465 47.3715 68.9492 47.3715H50.9323C48.5431 47.3715 46.2518 48.3083 44.5623 49.9759C42.8729 51.6434 41.9238 53.905 41.9238 56.2632V16.2508Z" stroke="url(#paint5_linear_2130_15347)" stroke-width="0.271226" stroke-linecap="round" stroke-linejoin="round"/>
<path d="M12.6465 45.1488C12.6465 45.7383 12.8838 46.3037 13.3061 46.7206C13.7285 47.1375 14.3013 47.3717 14.8986 47.3717H32.9155C35.3047 47.3717 37.596 48.3085 39.2854 49.976C40.9748 51.6435 41.9239 53.9051 41.9239 56.2633V16.2509C41.9239 13.8927 40.9748 11.6311 39.2854 9.96356C37.596 8.29605 35.3047 7.35925 32.9155 7.35925H14.8986C14.3013 7.35925 13.7285 7.59345 13.3061 8.01033C12.8838 8.42721 12.6465 8.99261 12.6465 9.58216V45.1488Z" fill="url(#paint6_linear_2130_15347)" stroke="url(#paint7_linear_2130_15347)" stroke-width="0.271226" stroke-linecap="round" stroke-linejoin="round"/>
</g>
<defs>
<linearGradient id="paint0_linear_2130_15347" x1="46.9278" y1="16.7366" x2="46.9278" y2="65.6406" gradientUnits="userSpaceOnUse">
<stop stop-color="#7E30E1"/>
<stop offset="1" stop-color="#8D48E4"/>
</linearGradient>
<linearGradient id="paint1_linear_2130_15347" x1="46.9278" y1="16.7366" x2="46.9278" y2="65.6406" gradientUnits="userSpaceOnUse">
<stop stop-color="#171A1C"/>
<stop offset="1" stop-color="#0D0D0D"/>
</linearGradient>
<linearGradient id="paint2_linear_2130_15347" x1="17.6504" y1="16.7366" x2="17.6504" y2="65.6406" gradientUnits="userSpaceOnUse">
<stop stop-color="#7E30E1"/>
<stop offset="1" stop-color="#8D48E4"/>
</linearGradient>
<linearGradient id="paint3_linear_2130_15347" x1="17.6504" y1="16.7366" x2="17.6504" y2="65.6406" gradientUnits="userSpaceOnUse">
<stop stop-color="#171A1C"/>
<stop offset="1" stop-color="#0D0D0D"/>
</linearGradient>
<linearGradient id="paint4_linear_2130_15347" x1="56.5626" y1="7.35913" x2="56.5626" y2="56.2632" gradientUnits="userSpaceOnUse">
<stop stop-color="#39A7FF"/>
<stop offset="1" stop-color="#66BBFF"/>
</linearGradient>
<linearGradient id="paint5_linear_2130_15347" x1="56.5626" y1="7.35913" x2="56.5626" y2="56.2632" gradientUnits="userSpaceOnUse">
<stop stop-color="#171A1C"/>
<stop offset="1" stop-color="#0D0D0D"/>
</linearGradient>
<linearGradient id="paint6_linear_2130_15347" x1="27.2852" y1="7.35925" x2="27.2852" y2="56.2633" gradientUnits="userSpaceOnUse">
<stop stop-color="#39A7FF"/>
<stop offset="1" stop-color="#66BBFF"/>
</linearGradient>
<linearGradient id="paint7_linear_2130_15347" x1="27.2852" y1="7.35925" x2="27.2852" y2="56.2633" gradientUnits="userSpaceOnUse">
<stop stop-color="#171A1C"/>
<stop offset="1" stop-color="#0D0D0D"/>
</linearGradient>
</defs>
</svg>
