<svg width="183" height="73" viewBox="0 0 183 73" fill="none" xmlns="http://www.w3.org/2000/svg">
<path d="M94.104 47.32C92.7813 47.32 91.6187 46.9893 90.616 46.328C89.6347 45.6667 88.984 44.7813 88.664 43.672L89.016 42.872V45.208C89.016 45.8693 88.8453 46.3813 88.504 46.744C88.1627 47.0853 87.6827 47.256 87.064 47.256C86.424 47.256 85.9333 47.0853 85.592 46.744C85.2507 46.3813 85.08 45.8693 85.08 45.208V26.2C85.08 25.5387 85.2507 25.0373 85.592 24.696C85.9333 24.3547 86.424 24.184 87.064 24.184C87.704 24.184 88.1947 24.3547 88.536 24.696C88.8987 25.0373 89.08 25.5387 89.08 26.2V34.52H88.696C89.0373 33.4747 89.6987 32.632 90.68 31.992C91.6613 31.352 92.8027 31.032 94.104 31.032C95.4907 31.032 96.696 31.3627 97.72 32.024C98.744 32.6853 99.544 33.624 100.12 34.84C100.696 36.0347 100.984 37.4747 100.984 39.16C100.984 40.824 100.696 42.2747 100.12 43.512C99.544 44.728 98.7333 45.6667 97.688 46.328C96.664 46.9893 95.4693 47.32 94.104 47.32ZM92.984 44.28C93.7733 44.28 94.4667 44.088 95.064 43.704C95.6613 43.32 96.12 42.7547 96.44 42.008C96.7813 41.24 96.952 40.2907 96.952 39.16C96.952 37.4533 96.5893 36.184 95.864 35.352C95.1387 34.4987 94.1787 34.072 92.984 34.072C92.1947 34.072 91.5013 34.264 90.904 34.648C90.3067 35.0107 89.8373 35.576 89.496 36.344C89.176 37.0907 89.016 38.0293 89.016 39.16C89.016 40.8453 89.3787 42.1253 90.104 43C90.8293 43.8533 91.7893 44.28 92.984 44.28ZM109.932 47.32C108.63 47.32 107.553 47.0853 106.7 46.616C105.846 46.1253 105.206 45.4 104.78 44.44C104.374 43.48 104.172 42.2853 104.172 40.856V33.112C104.172 32.4293 104.342 31.928 104.684 31.608C105.025 31.2667 105.516 31.096 106.156 31.096C106.796 31.096 107.286 31.2667 107.628 31.608C107.99 31.928 108.172 32.4293 108.172 33.112V40.92C108.172 42.0293 108.396 42.8507 108.844 43.384C109.292 43.9173 110.006 44.184 110.988 44.184C112.054 44.184 112.929 43.8213 113.612 43.096C114.294 42.3493 114.636 41.368 114.636 40.152V33.112C114.636 32.4293 114.806 31.928 115.148 31.608C115.489 31.2667 115.98 31.096 116.62 31.096C117.26 31.096 117.75 31.2667 118.092 31.608C118.454 31.928 118.635 32.4293 118.635 33.112V45.208C118.635 46.5733 117.985 47.256 116.684 47.256C116.065 47.256 115.585 47.0853 115.244 46.744C114.902 46.3813 114.732 45.8693 114.732 45.208V42.776L115.18 43.736C114.732 44.888 114.049 45.7733 113.132 46.392C112.236 47.0107 111.169 47.32 109.932 47.32ZM124.783 47.256C124.143 47.256 123.652 47.0853 123.311 46.744C122.969 46.3813 122.799 45.8693 122.799 45.208V26.2C122.799 25.5387 122.969 25.0373 123.311 24.696C123.652 24.3547 124.143 24.184 124.783 24.184C125.423 24.184 125.913 24.3547 126.255 24.696C126.617 25.0373 126.799 25.5387 126.799 26.2V38.008H126.863L132.143 32.44C132.569 32.0133 132.943 31.6827 133.263 31.448C133.583 31.2133 134.02 31.096 134.575 31.096C135.129 31.096 135.545 31.2453 135.823 31.544C136.121 31.8213 136.271 32.1627 136.271 32.568C136.271 32.9733 136.079 33.3787 135.695 33.784L130.127 39.672V38.008L136.239 44.6C136.623 45.0053 136.793 45.4213 136.751 45.848C136.729 46.2533 136.559 46.5947 136.239 46.872C135.919 47.128 135.513 47.256 135.023 47.256C134.425 47.256 133.945 47.1387 133.583 46.904C133.241 46.6693 132.857 46.3173 132.431 45.848L126.863 40.024H126.799V45.208C126.799 46.5733 126.127 47.256 124.783 47.256ZM141.939 47.224C141.299 47.224 140.808 47.032 140.467 46.648C140.126 46.264 139.955 45.7307 139.955 45.048V33.304C139.955 32.6 140.126 32.0667 140.467 31.704C140.808 31.32 141.299 31.128 141.939 31.128C142.579 31.128 143.07 31.32 143.411 31.704C143.774 32.0667 143.955 32.6 143.955 33.304V45.048C143.955 45.7307 143.784 46.264 143.443 46.648C143.102 47.032 142.6 47.224 141.939 47.224ZM141.939 28.152C141.192 28.152 140.606 27.9707 140.179 27.608C139.774 27.224 139.571 26.7013 139.571 26.04C139.571 25.3573 139.774 24.8347 140.179 24.472C140.606 24.1093 141.192 23.928 141.939 23.928C142.707 23.928 143.294 24.1093 143.699 24.472C144.104 24.8347 144.307 25.3573 144.307 26.04C144.307 26.7013 144.104 27.224 143.699 27.608C143.294 27.9707 142.707 28.152 141.939 28.152ZM149.071 47C148.666 47 148.325 46.904 148.047 46.712C147.791 46.4987 147.621 46.232 147.535 45.912C147.45 45.592 147.45 45.2507 147.535 44.888C147.642 44.504 147.845 44.1413 148.143 43.8L156.431 33.4V34.36H148.879C148.389 34.36 148.005 34.232 147.727 33.976C147.471 33.6987 147.343 33.3253 147.343 32.856C147.343 32.3653 147.471 31.992 147.727 31.736C148.005 31.48 148.389 31.352 148.879 31.352H158.351C158.821 31.352 159.205 31.4587 159.503 31.672C159.802 31.864 159.994 32.12 160.079 32.44C160.186 32.76 160.197 33.1013 160.111 33.464C160.026 33.8267 159.834 34.168 159.535 34.488L151.087 45.048V43.992H159.087C160.111 43.992 160.623 44.4933 160.623 45.496C160.623 45.9653 160.485 46.3387 160.207 46.616C159.951 46.872 159.578 47 159.087 47H149.071ZM164.228 47C163.822 47 163.481 46.904 163.204 46.712C162.948 46.4987 162.777 46.232 162.692 45.912C162.606 45.592 162.606 45.2507 162.692 44.888C162.798 44.504 163.001 44.1413 163.299 43.8L171.588 33.4V34.36H164.036C163.545 34.36 163.161 34.232 162.884 33.976C162.628 33.6987 162.5 33.3253 162.5 32.856C162.5 32.3653 162.628 31.992 162.884 31.736C163.161 31.48 163.545 31.352 164.036 31.352H173.508C173.977 31.352 174.361 31.4587 174.66 31.672C174.958 31.864 175.15 32.12 175.236 32.44C175.342 32.76 175.353 33.1013 175.268 33.464C175.182 33.8267 174.99 34.168 174.692 34.488L166.244 45.048V43.992H174.244C175.268 43.992 175.78 44.4933 175.78 45.496C175.78 45.9653 175.641 46.3387 175.364 46.616C175.108 46.872 174.734 47 174.244 47H164.228Z" fill="#171A1C"/>
<mask id="mask0_102_4125" style="mask-type:alpha" maskUnits="userSpaceOnUse" x="0" y="0" width="75" height="74">
<rect y="0.00012207" width="74.0973" height="73" fill="#D9D9D9"/>
</mask>
<g mask="url(#mask0_102_4125)">
<path d="M32.2891 25.6284C32.2891 23.2702 33.2382 21.0085 34.9276 19.341C36.617 17.6735 38.9083 16.7367 41.2975 16.7367H59.3144C59.9117 16.7367 60.4845 16.9709 60.9069 17.3878C61.3292 17.8047 61.5665 18.3701 61.5665 18.9596V54.5262C61.5665 55.1158 61.3292 55.6812 60.9069 56.0981C60.4845 56.5149 59.9117 56.7491 59.3144 56.7491H41.2975C38.9083 56.7491 36.617 57.6859 34.9276 59.3534C33.2382 61.021 32.2891 63.2826 32.2891 65.6408" fill="url(#paint0_linear_102_4125)"/>
<path d="M32.2891 25.6284C32.2891 23.2702 33.2382 21.0085 34.9276 19.341C36.617 17.6735 38.9083 16.7367 41.2975 16.7367H59.3144C59.9117 16.7367 60.4845 16.9709 60.9069 17.3878C61.3292 17.8047 61.5665 18.3701 61.5665 18.9596V54.5262C61.5665 55.1158 61.3292 55.6812 60.9069 56.0981C60.4845 56.5149 59.9117 56.7491 59.3144 56.7491H41.2975C38.9083 56.7491 36.617 57.6859 34.9276 59.3534C33.2382 61.021 32.2891 63.2826 32.2891 65.6408" stroke="url(#paint1_linear_102_4125)" stroke-width="0.271226" stroke-linecap="round" stroke-linejoin="round"/>
<path d="M3.01172 54.5263C3.01172 55.1158 3.24899 55.6813 3.67135 56.0981C4.0937 56.515 4.66653 56.7492 5.26383 56.7492H23.2807C25.6699 56.7492 27.9612 57.686 29.6507 59.3535C31.3401 61.021 32.2892 63.2826 32.2892 65.6409V25.6284C32.2892 23.2702 31.3401 21.0086 29.6507 19.3411C27.9612 17.6736 25.6699 16.7368 23.2807 16.7368H5.26383C4.66653 16.7368 4.0937 16.971 3.67135 17.3879C3.24899 17.8047 3.01172 18.3701 3.01172 18.9597V54.5263Z" fill="url(#paint2_linear_102_4125)" stroke="url(#paint3_linear_102_4125)" stroke-width="0.271226" stroke-linecap="round" stroke-linejoin="round"/>
<path d="M41.9238 16.2511C41.9238 13.8928 42.8729 11.6312 44.5623 9.96371C46.2518 8.2962 48.5431 7.35941 50.9323 7.35941H68.9492C69.5465 7.35941 70.1193 7.5936 70.5417 8.01048C70.964 8.42736 71.2013 8.99276 71.2013 9.58232V45.1489C71.2013 45.7385 70.964 46.3039 70.5417 46.7207C70.1193 47.1376 69.5465 47.3718 68.9492 47.3718H50.9323C48.5431 47.3718 46.2518 48.3086 44.5623 49.9761C42.8729 51.6436 41.9238 53.9053 41.9238 56.2635" fill="url(#paint4_linear_102_4125)"/>
<path d="M41.9238 16.2511C41.9238 13.8928 42.8729 11.6312 44.5623 9.96371C46.2518 8.2962 48.5431 7.35941 50.9323 7.35941H68.9492C69.5465 7.35941 70.1193 7.5936 70.5417 8.01048C70.964 8.42736 71.2013 8.99276 71.2013 9.58232V45.1489C71.2013 45.7385 70.964 46.3039 70.5417 46.7207C70.1193 47.1376 69.5465 47.3718 68.9492 47.3718H50.9323C48.5431 47.3718 46.2518 48.3086 44.5623 49.9761C42.8729 51.6436 41.9238 53.9053 41.9238 56.2635V16.2511Z" stroke="url(#paint5_linear_102_4125)" stroke-width="0.271226" stroke-linecap="round" stroke-linejoin="round"/>
<path d="M12.6465 45.149C12.6465 45.7386 12.8838 46.304 13.3061 46.7209C13.7285 47.1377 14.3013 47.3719 14.8986 47.3719H32.9155C35.3047 47.3719 37.596 48.3087 39.2854 49.9762C40.9748 51.6438 41.9239 53.9054 41.9239 56.2636V16.2512C41.9239 13.893 40.9748 11.6313 39.2854 9.96383C37.596 8.29632 35.3047 7.35953 32.9155 7.35953H14.8986C14.3013 7.35953 13.7285 7.59373 13.3061 8.0106C12.8838 8.42748 12.6465 8.99289 12.6465 9.58244V45.149Z" fill="url(#paint6_linear_102_4125)" stroke="url(#paint7_linear_102_4125)" stroke-width="0.271226" stroke-linecap="round" stroke-linejoin="round"/>
</g>
<defs>
<linearGradient id="paint0_linear_102_4125" x1="46.9278" y1="16.7367" x2="46.9278" y2="65.6408" gradientUnits="userSpaceOnUse">
<stop stop-color="#7E30E1"/>
<stop offset="1" stop-color="#8D48E4"/>
</linearGradient>
<linearGradient id="paint1_linear_102_4125" x1="46.9278" y1="16.7367" x2="46.9278" y2="65.6408" gradientUnits="userSpaceOnUse">
<stop stop-color="#171A1C"/>
<stop offset="1" stop-color="#0D0D0D"/>
</linearGradient>
<linearGradient id="paint2_linear_102_4125" x1="17.6504" y1="16.7368" x2="17.6504" y2="65.6409" gradientUnits="userSpaceOnUse">
<stop stop-color="#7E30E1"/>
<stop offset="1" stop-color="#8D48E4"/>
</linearGradient>
<linearGradient id="paint3_linear_102_4125" x1="17.6504" y1="16.7368" x2="17.6504" y2="65.6409" gradientUnits="userSpaceOnUse">
<stop stop-color="#171A1C"/>
<stop offset="1" stop-color="#0D0D0D"/>
</linearGradient>
<linearGradient id="paint4_linear_102_4125" x1="56.5626" y1="7.35941" x2="56.5626" y2="56.2635" gradientUnits="userSpaceOnUse">
<stop stop-color="#39A7FF"/>
<stop offset="1" stop-color="#66BBFF"/>
</linearGradient>
<linearGradient id="paint5_linear_102_4125" x1="56.5626" y1="7.35941" x2="56.5626" y2="56.2635" gradientUnits="userSpaceOnUse">
<stop stop-color="#171A1C"/>
<stop offset="1" stop-color="#0D0D0D"/>
</linearGradient>
<linearGradient id="paint6_linear_102_4125" x1="27.2852" y1="7.35953" x2="27.2852" y2="56.2636" gradientUnits="userSpaceOnUse">
<stop stop-color="#39A7FF"/>
<stop offset="1" stop-color="#66BBFF"/>
</linearGradient>
<linearGradient id="paint7_linear_102_4125" x1="27.2852" y1="7.35953" x2="27.2852" y2="56.2636" gradientUnits="userSpaceOnUse">
<stop stop-color="#171A1C"/>
<stop offset="1" stop-color="#0D0D0D"/>
</linearGradient>
</defs>
</svg>
